<svg xmlns="http://www.w3.org/2000/svg" xmlns:xlink="http://www.w3.org/1999/xlink" width="500" zoomAndPan="magnify" viewBox="0 0 375 374.999991" height="500" preserveAspectRatio="xMidYMid meet" version="1.0"><defs><g/><clipPath id="8a5c6b8183"><path d="M 304.71875 204.886719 L 341.46875 204.886719 L 341.46875 241.636719 L 304.71875 241.636719 Z M 304.71875 204.886719 " clip-rule="nonzero"/></clipPath></defs><rect x="-37.5" width="450" fill="#ffffff" y="-37.499999" height="449.999989" fill-opacity="1"/><rect x="-37.5" width="450" fill="#ffffff" y="-37.499999" height="449.999989" fill-opacity="1"/><path fill="#ef5241" d="M 323.671875 238.507812 C 323.671875 238.675781 323.613281 238.820312 323.492188 238.941406 C 323.375 239.058594 323.230469 239.121094 323.058594 239.121094 C 322.890625 239.121094 322.746094 239.058594 322.628906 238.941406 C 322.507812 238.820312 322.449219 238.675781 322.449219 238.507812 C 322.449219 238.339844 322.507812 238.195312 322.628906 238.074219 C 322.746094 237.957031 322.890625 237.898438 323.058594 237.898438 C 323.230469 237.898438 323.375 237.957031 323.492188 238.074219 C 323.613281 238.195312 323.671875 238.339844 323.671875 238.507812 Z M 323.671875 238.507812 " fill-opacity="1" fill-rule="nonzero"/><g clip-path="url(#8a5c6b8183)"><path fill="#ef5241" d="M 329.5625 231.402344 C 330.699219 230.804688 331.734375 230.070312 332.671875 229.191406 C 333.609375 228.3125 334.410156 227.324219 335.074219 226.226562 C 335.742188 225.128906 336.25 223.960938 336.59375 222.726562 C 336.941406 221.488281 337.117188 220.230469 337.121094 218.945312 C 337.121094 211.191406 330.8125 204.886719 323.058594 204.886719 C 315.308594 204.886719 309 211.191406 309 218.945312 C 309.003906 220.230469 309.179688 221.488281 309.523438 222.726562 C 309.871094 223.960938 310.378906 225.128906 311.046875 226.226562 C 311.710938 227.324219 312.511719 228.3125 313.449219 229.191406 C 314.382812 230.070312 315.421875 230.804688 316.558594 231.402344 C 308.699219 231.996094 304.71875 233.664062 304.71875 236.367188 C 304.71875 240.664062 314.695312 241.566406 323.058594 241.566406 C 331.425781 241.566406 341.398438 240.664062 341.398438 236.367188 C 341.398438 233.664062 337.417969 231.996094 329.5625 231.402344 Z M 310.222656 218.945312 C 310.222656 211.867188 315.980469 206.109375 323.058594 206.109375 C 330.140625 206.109375 335.898438 211.867188 335.898438 218.945312 C 335.894531 220.175781 335.722656 221.382812 335.371094 222.5625 C 335.023438 223.742188 334.519531 224.847656 333.855469 225.882812 C 333.1875 226.917969 332.390625 227.839844 331.460938 228.644531 C 330.53125 229.453125 329.507812 230.113281 328.390625 230.625 C 328.324219 230.65625 328.265625 230.695312 328.210938 230.75 L 325.15625 233.8125 C 325.144531 233.820312 325.132812 233.832031 325.121094 233.84375 L 323.460938 235.511719 C 323.351562 235.605469 323.222656 235.65625 323.078125 235.664062 C 322.933594 235.667969 322.800781 235.628906 322.6875 235.539062 L 317.90625 230.75 C 317.855469 230.695312 317.792969 230.65625 317.726562 230.625 C 316.609375 230.113281 315.585938 229.453125 314.65625 228.644531 C 313.726562 227.839844 312.929688 226.917969 312.265625 225.882812 C 311.601562 224.847656 311.09375 223.742188 310.746094 222.5625 C 310.398438 221.382812 310.226562 220.175781 310.222656 218.945312 Z M 323.058594 240.34375 C 312.503906 240.34375 305.941406 238.820312 305.941406 236.367188 C 305.941406 234.367188 310.324219 232.972656 317.964844 232.539062 L 319.152344 233.726562 C 315.3125 233.941406 310.222656 234.570312 310.222656 236.367188 C 310.222656 238.402344 316.714844 238.9375 320.582031 239.074219 L 320.605469 239.074219 C 320.773438 239.078125 320.917969 239.023438 321.042969 238.90625 C 321.164062 238.789062 321.226562 238.644531 321.226562 238.476562 C 321.230469 238.308594 321.171875 238.160156 321.054688 238.039062 C 320.9375 237.917969 320.796875 237.855469 320.628906 237.851562 C 314.773438 237.644531 312.054688 236.804688 311.511719 236.367188 C 312.046875 235.941406 314.683594 235.125 320.320312 234.894531 L 321.847656 236.429688 C 322.191406 236.730469 322.589844 236.878906 323.046875 236.878906 C 323.519531 236.878906 323.9375 236.71875 324.292969 236.402344 L 325.796875 234.894531 C 331.433594 235.125 334.066406 235.941406 334.605469 236.367188 C 334.058594 236.804688 331.34375 237.644531 325.492188 237.855469 C 325.324219 237.859375 325.179688 237.921875 325.0625 238.042969 C 324.945312 238.164062 324.886719 238.308594 324.890625 238.476562 C 324.894531 238.644531 324.957031 238.789062 325.078125 238.90625 C 325.199219 239.023438 325.34375 239.082031 325.511719 239.078125 L 325.535156 239.078125 C 329.40625 238.9375 335.898438 238.402344 335.898438 236.367188 C 335.898438 234.570312 330.808594 233.941406 326.96875 233.726562 L 328.15625 232.539062 C 335.796875 232.972656 340.175781 234.367188 340.175781 236.367188 C 340.175781 238.820312 333.617188 240.34375 323.058594 240.34375 Z M 323.058594 240.34375 " fill-opacity="1" fill-rule="nonzero"/></g><path fill="#ef5241" d="M 334.675781 218.945312 C 334.675781 212.542969 329.464844 207.332031 323.058594 207.332031 C 316.65625 207.332031 311.445312 212.542969 311.445312 218.945312 C 311.445312 225.351562 316.65625 230.5625 323.058594 230.5625 C 329.464844 230.5625 334.675781 225.351562 334.675781 218.945312 Z M 312.667969 218.945312 C 312.667969 213.214844 317.328125 208.554688 323.058594 208.554688 C 328.792969 208.554688 333.453125 213.214844 333.453125 218.945312 C 333.453125 224.675781 328.792969 229.339844 323.058594 229.339844 C 317.328125 229.339844 312.667969 224.675781 312.667969 218.945312 Z M 312.667969 218.945312 " fill-opacity="1" fill-rule="nonzero"/><path fill="#ef5241" d="M 325.503906 223.835938 L 325.503906 224 C 325.507812 224.222656 325.546875 224.433594 325.632812 224.640625 C 325.71875 224.84375 325.839844 225.023438 325.996094 225.179688 C 326.152344 225.335938 326.332031 225.457031 326.535156 225.542969 C 326.742188 225.628906 326.953125 225.671875 327.175781 225.671875 L 327.503906 225.671875 C 327.726562 225.671875 327.9375 225.628906 328.140625 225.542969 C 328.347656 225.457031 328.527344 225.335938 328.683594 225.179688 C 328.839844 225.023438 328.960938 224.84375 329.046875 224.640625 C 329.132812 224.433594 329.171875 224.222656 329.171875 224 L 329.171875 223.835938 L 330.394531 223.835938 C 330.566406 223.835938 330.710938 223.777344 330.828125 223.65625 C 330.949219 223.539062 331.007812 223.394531 331.007812 223.226562 L 331.007812 220.265625 C 331.007812 219.90625 330.910156 219.570312 330.71875 219.265625 L 331.347656 218.84375 C 331.488281 218.75 331.574219 218.617188 331.605469 218.453125 C 331.640625 218.289062 331.609375 218.136719 331.515625 217.996094 C 331.421875 217.855469 331.292969 217.769531 331.125 217.734375 C 330.960938 217.703125 330.808594 217.734375 330.667969 217.828125 L 329.859375 218.367188 L 327.640625 214.097656 C 327.5 213.730469 327.269531 213.433594 326.949219 213.207031 C 326.628906 212.976562 326.277344 212.855469 325.882812 212.839844 L 324.96875 211.027344 C 324.851562 210.804688 324.671875 210.691406 324.417969 210.691406 L 321.703125 210.691406 C 321.453125 210.691406 321.269531 210.804688 321.15625 211.027344 L 320.238281 212.832031 C 319.84375 212.835938 319.484375 212.949219 319.15625 213.171875 C 318.828125 213.390625 318.589844 213.683594 318.441406 214.050781 L 316.257812 218.363281 L 315.457031 217.828125 C 315.316406 217.734375 315.164062 217.703125 314.996094 217.738281 C 314.832031 217.769531 314.703125 217.855469 314.609375 217.996094 C 314.515625 218.136719 314.484375 218.289062 314.515625 218.457031 C 314.550781 218.621094 314.636719 218.75 314.777344 218.84375 L 315.40625 219.265625 C 315.214844 219.570312 315.117188 219.90625 315.113281 220.265625 L 315.113281 223.226562 C 315.113281 223.394531 315.171875 223.539062 315.292969 223.65625 C 315.410156 223.777344 315.554688 223.835938 315.722656 223.835938 L 316.945312 223.835938 L 316.945312 224 C 316.949219 224.222656 316.988281 224.433594 317.074219 224.640625 C 317.160156 224.84375 317.28125 225.023438 317.4375 225.179688 C 317.59375 225.335938 317.773438 225.457031 317.976562 225.542969 C 318.183594 225.628906 318.394531 225.671875 318.617188 225.671875 L 318.945312 225.671875 C 319.167969 225.671875 319.378906 225.628906 319.582031 225.542969 C 319.789062 225.457031 319.96875 225.335938 320.125 225.179688 C 320.28125 225.023438 320.402344 224.84375 320.488281 224.640625 C 320.574219 224.433594 320.613281 224.222656 320.613281 224 L 320.613281 223.835938 Z M 327.949219 224 C 327.949219 224.125 327.90625 224.230469 327.820312 224.316406 C 327.730469 224.402344 327.625 224.449219 327.503906 224.449219 L 327.175781 224.449219 C 327.050781 224.449219 326.945312 224.402344 326.859375 224.316406 C 326.773438 224.230469 326.726562 224.125 326.726562 224 L 326.726562 223.835938 L 327.949219 223.835938 Z M 322.078125 211.914062 L 324.042969 211.914062 L 324.511719 212.832031 L 321.609375 212.832031 Z M 319.554688 214.558594 C 319.671875 214.234375 319.902344 214.066406 320.25 214.054688 L 325.816406 214.054688 C 326.113281 214.054688 326.386719 214.253906 326.535156 214.609375 L 328.464844 218.335938 L 317.640625 218.335938 Z M 316.335938 220.265625 C 316.335938 220.070312 316.40625 219.902344 316.542969 219.765625 C 316.683594 219.625 316.847656 219.558594 317.042969 219.558594 L 329.074219 219.558594 C 329.273438 219.558594 329.4375 219.625 329.578125 219.765625 C 329.714844 219.902344 329.785156 220.070312 329.785156 220.265625 L 329.785156 222.613281 L 316.335938 222.613281 Z M 319.390625 224 C 319.390625 224.125 319.347656 224.230469 319.261719 224.316406 C 319.171875 224.402344 319.066406 224.449219 318.945312 224.449219 L 318.617188 224.449219 C 318.492188 224.449219 318.386719 224.402344 318.300781 224.316406 C 318.214844 224.230469 318.167969 224.125 318.167969 224 L 318.167969 223.835938 L 319.390625 223.835938 Z M 319.390625 224 " fill-opacity="1" fill-rule="nonzero"/><path fill="#ef5241" d="M 319.390625 221.085938 C 319.390625 221.253906 319.332031 221.398438 319.214844 221.519531 C 319.09375 221.636719 318.949219 221.695312 318.78125 221.695312 C 318.613281 221.695312 318.46875 221.636719 318.347656 221.519531 C 318.230469 221.398438 318.167969 221.253906 318.167969 221.085938 C 318.167969 220.917969 318.230469 220.773438 318.347656 220.652344 C 318.46875 220.535156 318.613281 220.472656 318.78125 220.472656 C 318.949219 220.472656 319.09375 220.535156 319.214844 220.652344 C 319.332031 220.773438 319.390625 220.917969 319.390625 221.085938 Z M 319.390625 221.085938 " fill-opacity="1" fill-rule="nonzero"/><path fill="#ef5241" d="M 327.949219 221.085938 C 327.949219 221.253906 327.890625 221.398438 327.773438 221.519531 C 327.652344 221.636719 327.507812 221.695312 327.339844 221.695312 C 327.171875 221.695312 327.027344 221.636719 326.90625 221.519531 C 326.789062 221.398438 326.726562 221.253906 326.726562 221.085938 C 326.726562 220.917969 326.789062 220.773438 326.90625 220.652344 C 327.027344 220.535156 327.171875 220.472656 327.339844 220.472656 C 327.507812 220.472656 327.652344 220.535156 327.773438 220.652344 C 327.890625 220.773438 327.949219 220.917969 327.949219 221.085938 Z M 327.949219 221.085938 " fill-opacity="1" fill-rule="nonzero"/><g fill="#544f4d" fill-opacity="1"><g transform="translate(31.183807, 201.007904)"><g><path d="M 53.03125 -20.203125 C 52.5625 -13.679688 50.148438 -8.546875 45.796875 -4.796875 C 41.453125 -1.046875 35.726562 0.828125 28.625 0.828125 C 20.84375 0.828125 14.722656 -1.785156 10.265625 -7.015625 C 5.804688 -12.253906 3.578125 -19.441406 3.578125 -28.578125 L 3.578125 -32.28125 C 3.578125 -38.113281 4.601562 -43.25 6.65625 -47.6875 C 8.71875 -52.132812 11.65625 -55.546875 15.46875 -57.921875 C 19.289062 -60.296875 23.726562 -61.484375 28.78125 -61.484375 C 35.78125 -61.484375 41.414062 -59.609375 45.6875 -55.859375 C 49.96875 -52.109375 52.441406 -46.847656 53.109375 -40.078125 L 40.609375 -40.078125 C 40.304688 -43.992188 39.21875 -46.832031 37.34375 -48.59375 C 35.46875 -50.351562 32.613281 -51.234375 28.78125 -51.234375 C 24.613281 -51.234375 21.492188 -49.738281 19.421875 -46.75 C 17.359375 -43.769531 16.300781 -39.140625 16.25 -32.859375 L 16.25 -28.28125 C 16.25 -21.726562 17.238281 -16.9375 19.21875 -13.90625 C 21.207031 -10.882812 24.34375 -9.375 28.625 -9.375 C 32.476562 -9.375 35.351562 -10.253906 37.25 -12.015625 C 39.15625 -13.773438 40.25 -16.503906 40.53125 -20.203125 Z M 53.03125 -20.203125 "/></g></g></g><g fill="#544f4d" fill-opacity="1"><g transform="translate(81.884215, 201.007904)"><g><path d="M 17.328125 0 L 5.25 0 L 5.25 -45.078125 L 17.328125 -45.078125 Z M 4.546875 -56.734375 C 4.546875 -58.535156 5.148438 -60.019531 6.359375 -61.1875 C 7.566406 -62.351562 9.207031 -62.9375 11.28125 -62.9375 C 13.34375 -62.9375 14.984375 -62.351562 16.203125 -61.1875 C 17.421875 -60.019531 18.03125 -58.535156 18.03125 -56.734375 C 18.03125 -54.898438 17.410156 -53.398438 16.171875 -52.234375 C 14.941406 -51.066406 13.3125 -50.484375 11.28125 -50.484375 C 9.257812 -50.484375 7.628906 -51.066406 6.390625 -52.234375 C 5.160156 -53.398438 4.546875 -54.898438 4.546875 -56.734375 Z M 4.546875 -56.734375 "/></g></g></g><g fill="#544f4d" fill-opacity="1"><g transform="translate(99.384399, 201.007904)"><g><path d="M 19.03125 -56.15625 L 19.03125 -45.078125 L 26.75 -45.078125 L 26.75 -36.234375 L 19.03125 -36.234375 L 19.03125 -13.75 C 19.03125 -12.082031 19.347656 -10.882812 19.984375 -10.15625 C 20.628906 -9.4375 21.851562 -9.078125 23.65625 -9.078125 C 24.988281 -9.078125 26.171875 -9.175781 27.203125 -9.375 L 27.203125 -0.25 C 24.835938 0.46875 22.40625 0.828125 19.90625 0.828125 C 11.46875 0.828125 7.164062 -3.429688 7 -11.953125 L 7 -36.234375 L 0.421875 -36.234375 L 0.421875 -45.078125 L 7 -45.078125 L 7 -56.15625 Z M 19.03125 -56.15625 "/></g></g></g><g fill="#544f4d" fill-opacity="1"><g transform="translate(123.0914, 201.007904)"><g><path d="M 21.453125 -17.03125 L 29.78125 -45.078125 L 42.703125 -45.078125 L 24.578125 7 L 23.578125 9.375 C 20.878906 15.257812 16.4375 18.203125 10.25 18.203125 C 8.5 18.203125 6.722656 17.9375 4.921875 17.40625 L 4.921875 8.296875 L 6.75 8.328125 C 9.03125 8.328125 10.726562 7.976562 11.84375 7.28125 C 12.96875 6.59375 13.851562 5.441406 14.5 3.828125 L 15.90625 0.125 L 0.125 -45.078125 L 13.078125 -45.078125 Z M 21.453125 -17.03125 "/></g></g></g><g fill="#ef5241" fill-opacity="1"><g transform="translate(153.005474, 201.007904)"><g><path d="M 51.078125 -50.53125 L 32.484375 -50.53125 L 32.484375 0 L 20 0 L 20 -50.53125 L 1.671875 -50.53125 L 1.671875 -60.65625 L 51.078125 -60.65625 Z M 51.078125 -50.53125 "/></g></g></g><g fill="#ef5241" fill-opacity="1"><g transform="translate(200.664957, 201.007904)"><g><path d="M 30.75 0 C 30.1875 -1.082031 29.78125 -2.429688 29.53125 -4.046875 C 26.613281 -0.796875 22.820312 0.828125 18.15625 0.828125 C 13.738281 0.828125 10.078125 -0.445312 7.171875 -3 C 4.273438 -5.550781 2.828125 -8.769531 2.828125 -12.65625 C 2.828125 -17.4375 4.597656 -21.101562 8.140625 -23.65625 C 11.679688 -26.21875 16.800781 -27.507812 23.5 -27.53125 L 29.03125 -27.53125 L 29.03125 -30.125 C 29.03125 -32.195312 28.492188 -33.859375 27.421875 -35.109375 C 26.359375 -36.359375 24.675781 -36.984375 22.375 -36.984375 C 20.34375 -36.984375 18.75 -36.5 17.59375 -35.53125 C 16.445312 -34.5625 15.875 -33.226562 15.875 -31.53125 L 3.828125 -31.53125 C 3.828125 -34.144531 4.632812 -36.5625 6.25 -38.78125 C 7.863281 -41 10.140625 -42.738281 13.078125 -44 C 16.023438 -45.269531 19.332031 -45.90625 23 -45.90625 C 28.550781 -45.90625 32.957031 -44.507812 36.21875 -41.71875 C 39.476562 -38.925781 41.109375 -35.003906 41.109375 -29.953125 L 41.109375 -10.421875 C 41.140625 -6.140625 41.738281 -2.898438 42.90625 -0.703125 L 42.90625 0 Z M 20.78125 -8.375 C 22.5625 -8.375 24.203125 -8.769531 25.703125 -9.5625 C 27.203125 -10.351562 28.3125 -11.414062 29.03125 -12.75 L 29.03125 -20.5 L 24.53125 -20.5 C 18.507812 -20.5 15.300781 -18.414062 14.90625 -14.25 L 14.875 -13.53125 C 14.875 -12.03125 15.398438 -10.796875 16.453125 -9.828125 C 17.503906 -8.859375 18.945312 -8.375 20.78125 -8.375 Z M 20.78125 -8.375 "/></g></g></g><g fill="#ef5241" fill-opacity="1"><g transform="translate(241.284494, 201.007904)"><g><path d="M 27.125 -39.734375 L 38.484375 -60.65625 L 52.859375 -60.65625 L 35.203125 -30.578125 L 53.328125 0 L 38.78125 0 L 27.125 -21.25 L 15.453125 0 L 0.921875 0 L 19.03125 -30.578125 L 1.375 -60.65625 L 15.75 -60.65625 Z M 27.125 -39.734375 "/></g></g></g><g fill="#ef5241" fill-opacity="1"><g transform="translate(290.360292, 201.007904)"><g><path d="M 17.328125 0 L 5.25 0 L 5.25 -45.078125 L 17.328125 -45.078125 Z M 4.546875 -56.734375 C 4.546875 -58.535156 5.148438 -60.019531 6.359375 -61.1875 C 7.566406 -62.351562 9.207031 -62.9375 11.28125 -62.9375 C 13.34375 -62.9375 14.984375 -62.351562 16.203125 -61.1875 C 17.421875 -60.019531 18.03125 -58.535156 18.03125 -56.734375 C 18.03125 -54.898438 17.410156 -53.398438 16.171875 -52.234375 C 14.941406 -51.066406 13.3125 -50.484375 11.28125 -50.484375 C 9.257812 -50.484375 7.628906 -51.066406 6.390625 -52.234375 C 5.160156 -53.398438 4.546875 -54.898438 4.546875 -56.734375 Z M 4.546875 -56.734375 "/></g></g></g><g fill="#544f4d" fill-opacity="1"><g transform="translate(34.500879, 234.543998)"><g><path d="M 8.734375 -4.578125 C 8.734375 -3.628906 8.566406 -2.800781 8.234375 -2.09375 C 7.898438 -1.382812 7.421875 -0.835938 6.796875 -0.453125 C 6.171875 -0.0664062 5.457031 0.125 4.65625 0.125 C 3.863281 0.125 3.15625 -0.0625 2.53125 -0.4375 C 1.90625 -0.820312 1.421875 -1.367188 1.078125 -2.078125 C 0.742188 -2.785156 0.570312 -3.597656 0.5625 -4.515625 L 0.5625 -5 C 0.5625 -5.9375 0.734375 -6.765625 1.078125 -7.484375 C 1.421875 -8.203125 1.898438 -8.753906 2.515625 -9.140625 C 3.140625 -9.523438 3.847656 -9.71875 4.640625 -9.71875 C 5.441406 -9.71875 6.148438 -9.523438 6.765625 -9.140625 C 7.390625 -8.753906 7.875 -8.203125 8.21875 -7.484375 C 8.5625 -6.765625 8.734375 -5.9375 8.734375 -5 Z M 6.734375 -5.015625 C 6.734375 -6.015625 6.550781 -6.773438 6.1875 -7.296875 C 5.832031 -7.816406 5.316406 -8.078125 4.640625 -8.078125 C 3.984375 -8.078125 3.472656 -7.816406 3.109375 -7.296875 C 2.753906 -6.785156 2.570312 -6.035156 2.5625 -5.046875 L 2.5625 -4.578125 C 2.5625 -3.597656 2.738281 -2.835938 3.09375 -2.296875 C 3.457031 -1.753906 3.976562 -1.484375 4.65625 -1.484375 C 5.320312 -1.484375 5.832031 -1.742188 6.1875 -2.265625 C 6.539062 -2.785156 6.722656 -3.546875 6.734375 -4.546875 Z M 6.734375 -5.015625 "/></g></g></g><g fill="#544f4d" fill-opacity="1"><g transform="translate(50.627571, 234.543998)"><g><path d="M 8.65625 0 L 6.671875 0 L 2.828125 -6.3125 L 2.828125 0 L 0.859375 0 L 0.859375 -9.59375 L 2.828125 -9.59375 L 6.6875 -3.265625 L 6.6875 -9.59375 L 8.65625 -9.59375 Z M 8.65625 0 "/></g></g></g><g fill="#544f4d" fill-opacity="1"><g transform="translate(66.964977, 234.543998)"><g><path d="M 2.828125 -1.59375 L 7.03125 -1.59375 L 7.03125 0 L 0.859375 0 L 0.859375 -9.59375 L 2.828125 -9.59375 Z M 2.828125 -1.59375 "/></g></g></g><g fill="#544f4d" fill-opacity="1"><g transform="translate(81.083305, 234.543998)"><g><path d="M 2.953125 0 L 0.984375 0 L 0.984375 -9.59375 L 2.953125 -9.59375 Z M 2.953125 0 "/></g></g></g><g fill="#544f4d" fill-opacity="1"><g transform="translate(91.830212, 234.543998)"><g><path d="M 8.65625 0 L 6.671875 0 L 2.828125 -6.3125 L 2.828125 0 L 0.859375 0 L 0.859375 -9.59375 L 2.828125 -9.59375 L 6.6875 -3.265625 L 6.6875 -9.59375 L 8.65625 -9.59375 Z M 8.65625 0 "/></g></g></g><g fill="#544f4d" fill-opacity="1"><g transform="translate(108.167615, 234.543998)"><g><path d="M 6.625 -4.15625 L 2.828125 -4.15625 L 2.828125 -1.59375 L 7.28125 -1.59375 L 7.28125 0 L 0.859375 0 L 0.859375 -9.59375 L 7.265625 -9.59375 L 7.265625 -7.984375 L 2.828125 -7.984375 L 2.828125 -5.703125 L 6.625 -5.703125 Z M 6.625 -4.15625 "/></g></g></g><g fill="#544f4d" fill-opacity="1"><g transform="translate(122.569093, 234.543998)"><g/></g></g><g fill="#544f4d" fill-opacity="1"><g transform="translate(132.743126, 234.543998)"><g><path d="M 8.078125 -7.984375 L 5.140625 -7.984375 L 5.140625 0 L 3.15625 0 L 3.15625 -7.984375 L 0.265625 -7.984375 L 0.265625 -9.59375 L 8.078125 -9.59375 Z M 8.078125 -7.984375 "/></g></g></g><g fill="#544f4d" fill-opacity="1"><g transform="translate(147.901856, 234.543998)"><g><path d="M 6.265625 -1.96875 L 2.8125 -1.96875 L 2.140625 0 L 0.046875 0 L 3.609375 -9.59375 L 5.4375 -9.59375 L 9.03125 0 L 6.9375 0 Z M 3.34375 -3.578125 L 5.734375 -3.578125 L 4.53125 -7.15625 Z M 3.34375 -3.578125 "/></g></g></g><g fill="#544f4d" fill-opacity="1"><g transform="translate(163.791499, 234.543998)"><g><path d="M 4.28125 -6.28125 L 6.078125 -9.59375 L 8.359375 -9.59375 L 5.5625 -4.828125 L 8.421875 0 L 6.125 0 L 4.28125 -3.359375 L 2.4375 0 L 0.140625 0 L 3.015625 -4.828125 L 0.21875 -9.59375 L 2.484375 -9.59375 Z M 4.28125 -6.28125 "/></g></g></g><g fill="#544f4d" fill-opacity="1"><g transform="translate(179.174106, 234.543998)"><g><path d="M 2.953125 0 L 0.984375 0 L 0.984375 -9.59375 L 2.953125 -9.59375 Z M 2.953125 0 "/></g></g></g><g fill="#544f4d" fill-opacity="1"><g transform="translate(189.921009, 234.543998)"><g/></g></g><g fill="#544f4d" fill-opacity="1"><g transform="translate(200.095035, 234.543998)"><g><path d="M 0.859375 0 L 0.859375 -9.59375 L 4.21875 -9.59375 C 5.375 -9.59375 6.253906 -9.367188 6.859375 -8.921875 C 7.460938 -8.472656 7.765625 -7.816406 7.765625 -6.953125 C 7.765625 -6.484375 7.640625 -6.070312 7.390625 -5.71875 C 7.148438 -5.363281 6.816406 -5.101562 6.390625 -4.9375 C 6.878906 -4.8125 7.265625 -4.5625 7.546875 -4.1875 C 7.835938 -3.8125 7.984375 -3.351562 7.984375 -2.8125 C 7.984375 -1.894531 7.6875 -1.195312 7.09375 -0.71875 C 6.507812 -0.25 5.671875 -0.0078125 4.578125 0 Z M 2.828125 -4.171875 L 2.828125 -1.59375 L 4.515625 -1.59375 C 4.984375 -1.59375 5.347656 -1.703125 5.609375 -1.921875 C 5.867188 -2.140625 6 -2.445312 6 -2.84375 C 6 -3.71875 5.546875 -4.160156 4.640625 -4.171875 Z M 2.828125 -5.5625 L 4.296875 -5.5625 C 5.285156 -5.582031 5.78125 -5.984375 5.78125 -6.765625 C 5.78125 -7.191406 5.65625 -7.5 5.40625 -7.6875 C 5.15625 -7.882812 4.757812 -7.984375 4.21875 -7.984375 L 2.828125 -7.984375 Z M 2.828125 -5.5625 "/></g></g></g><g fill="#544f4d" fill-opacity="1"><g transform="translate(215.51715, 234.543998)"><g><path d="M 8.734375 -4.578125 C 8.734375 -3.628906 8.566406 -2.800781 8.234375 -2.09375 C 7.898438 -1.382812 7.421875 -0.835938 6.796875 -0.453125 C 6.171875 -0.0664062 5.457031 0.125 4.65625 0.125 C 3.863281 0.125 3.15625 -0.0625 2.53125 -0.4375 C 1.90625 -0.820312 1.421875 -1.367188 1.078125 -2.078125 C 0.742188 -2.785156 0.570312 -3.597656 0.5625 -4.515625 L 0.5625 -5 C 0.5625 -5.9375 0.734375 -6.765625 1.078125 -7.484375 C 1.421875 -8.203125 1.898438 -8.753906 2.515625 -9.140625 C 3.140625 -9.523438 3.847656 -9.71875 4.640625 -9.71875 C 5.441406 -9.71875 6.148438 -9.523438 6.765625 -9.140625 C 7.390625 -8.753906 7.875 -8.203125 8.21875 -7.484375 C 8.5625 -6.765625 8.734375 -5.9375 8.734375 -5 Z M 6.734375 -5.015625 C 6.734375 -6.015625 6.550781 -6.773438 6.1875 -7.296875 C 5.832031 -7.816406 5.316406 -8.078125 4.640625 -8.078125 C 3.984375 -8.078125 3.472656 -7.816406 3.109375 -7.296875 C 2.753906 -6.785156 2.570312 -6.035156 2.5625 -5.046875 L 2.5625 -4.578125 C 2.5625 -3.597656 2.738281 -2.835938 3.09375 -2.296875 C 3.457031 -1.753906 3.976562 -1.484375 4.65625 -1.484375 C 5.320312 -1.484375 5.832031 -1.742188 6.1875 -2.265625 C 6.539062 -2.785156 6.722656 -3.546875 6.734375 -4.546875 Z M 6.734375 -5.015625 "/></g></g></g><g fill="#544f4d" fill-opacity="1"><g transform="translate(231.643839, 234.543998)"><g><path d="M 8.734375 -4.578125 C 8.734375 -3.628906 8.566406 -2.800781 8.234375 -2.09375 C 7.898438 -1.382812 7.421875 -0.835938 6.796875 -0.453125 C 6.171875 -0.0664062 5.457031 0.125 4.65625 0.125 C 3.863281 0.125 3.15625 -0.0625 2.53125 -0.4375 C 1.90625 -0.820312 1.421875 -1.367188 1.078125 -2.078125 C 0.742188 -2.785156 0.570312 -3.597656 0.5625 -4.515625 L 0.5625 -5 C 0.5625 -5.9375 0.734375 -6.765625 1.078125 -7.484375 C 1.421875 -8.203125 1.898438 -8.753906 2.515625 -9.140625 C 3.140625 -9.523438 3.847656 -9.71875 4.640625 -9.71875 C 5.441406 -9.71875 6.148438 -9.523438 6.765625 -9.140625 C 7.390625 -8.753906 7.875 -8.203125 8.21875 -7.484375 C 8.5625 -6.765625 8.734375 -5.9375 8.734375 -5 Z M 6.734375 -5.015625 C 6.734375 -6.015625 6.550781 -6.773438 6.1875 -7.296875 C 5.832031 -7.816406 5.316406 -8.078125 4.640625 -8.078125 C 3.984375 -8.078125 3.472656 -7.816406 3.109375 -7.296875 C 2.753906 -6.785156 2.570312 -6.035156 2.5625 -5.046875 L 2.5625 -4.578125 C 2.5625 -3.597656 2.738281 -2.835938 3.09375 -2.296875 C 3.457031 -1.753906 3.976562 -1.484375 4.65625 -1.484375 C 5.320312 -1.484375 5.832031 -1.742188 6.1875 -2.265625 C 6.539062 -2.785156 6.722656 -3.546875 6.734375 -4.546875 Z M 6.734375 -5.015625 "/></g></g></g><g fill="#544f4d" fill-opacity="1"><g transform="translate(247.770528, 234.543998)"><g><path d="M 3.859375 -3.84375 L 2.828125 -2.734375 L 2.828125 0 L 0.859375 0 L 0.859375 -9.59375 L 2.828125 -9.59375 L 2.828125 -5.234375 L 3.703125 -6.4375 L 6.140625 -9.59375 L 8.578125 -9.59375 L 5.171875 -5.328125 L 8.671875 0 L 6.328125 0 Z M 3.859375 -3.84375 "/></g></g></g><g fill="#544f4d" fill-opacity="1"><g transform="translate(263.146549, 234.543998)"><g><path d="M 2.953125 0 L 0.984375 0 L 0.984375 -9.59375 L 2.953125 -9.59375 Z M 2.953125 0 "/></g></g></g><g fill="#544f4d" fill-opacity="1"><g transform="translate(273.893453, 234.543998)"><g><path d="M 8.65625 0 L 6.671875 0 L 2.828125 -6.3125 L 2.828125 0 L 0.859375 0 L 0.859375 -9.59375 L 2.828125 -9.59375 L 6.6875 -3.265625 L 6.6875 -9.59375 L 8.65625 -9.59375 Z M 8.65625 0 "/></g></g></g><g fill="#544f4d" fill-opacity="1"><g transform="translate(290.23087, 234.543998)"><g><path d="M 8.4375 -1.21875 C 8.082031 -0.789062 7.578125 -0.457031 6.921875 -0.21875 C 6.273438 0.0078125 5.5625 0.125 4.78125 0.125 C 3.945312 0.125 3.21875 -0.0507812 2.59375 -0.40625 C 1.96875 -0.769531 1.484375 -1.296875 1.140625 -1.984375 C 0.796875 -2.671875 0.625 -3.484375 0.625 -4.421875 L 0.625 -5.0625 C 0.625 -6.019531 0.785156 -6.847656 1.109375 -7.546875 C 1.429688 -8.253906 1.894531 -8.789062 2.5 -9.15625 C 3.101562 -9.53125 3.816406 -9.71875 4.640625 -9.71875 C 5.773438 -9.71875 6.660156 -9.445312 7.296875 -8.90625 C 7.941406 -8.363281 8.320312 -7.570312 8.4375 -6.53125 L 6.515625 -6.53125 C 6.429688 -7.082031 6.238281 -7.484375 5.9375 -7.734375 C 5.632812 -7.992188 5.21875 -8.125 4.6875 -8.125 C 4.019531 -8.125 3.507812 -7.867188 3.15625 -7.359375 C 2.8125 -6.859375 2.632812 -6.109375 2.625 -5.109375 L 2.625 -4.5 C 2.625 -3.5 2.8125 -2.738281 3.1875 -2.21875 C 3.570312 -1.707031 4.132812 -1.453125 4.875 -1.453125 C 5.613281 -1.453125 6.144531 -1.609375 6.46875 -1.921875 L 6.46875 -3.578125 L 4.671875 -3.578125 L 4.671875 -5.03125 L 8.4375 -5.03125 Z M 8.4375 -1.21875 "/></g></g></g></svg>